<svg width="32" height="32" viewBox="0 0 32 32" fill="none" xmlns="http://www.w3.org/2000/svg">
<path d="M13.3328 29.3322V20.5725" stroke="#AE864B" stroke-width="2.66656" stroke-linecap="round" stroke-linejoin="round"/>
<path d="M15.9993 14.666H16.0126" stroke="#AE864B" stroke-width="2.66656" stroke-linecap="round" stroke-linejoin="round"/>
<path d="M15.9993 9.33301H16.0126" stroke="#AE864B" stroke-width="2.66656" stroke-linecap="round" stroke-linejoin="round"/>
<path d="M18.666 20.5725V29.3322" stroke="#AE864B" stroke-width="2.66656" stroke-linecap="round" stroke-linejoin="round"/>
<path d="M19.9992 21.3325C18.8453 20.4671 17.4418 19.9993 15.9993 19.9993C14.5569 19.9993 13.1534 20.4671 11.9995 21.3325" stroke="#AE864B" stroke-width="2.66656" stroke-linecap="round" stroke-linejoin="round"/>
<path d="M21.3325 14.666H21.3459" stroke="#AE864B" stroke-width="2.66656" stroke-linecap="round" stroke-linejoin="round"/>
<path d="M21.3325 9.33301H21.3459" stroke="#AE864B" stroke-width="2.66656" stroke-linecap="round" stroke-linejoin="round"/>
<path d="M10.6663 14.666H10.6796" stroke="#AE864B" stroke-width="2.66656" stroke-linecap="round" stroke-linejoin="round"/>
<path d="M10.6663 9.33301H10.6796" stroke="#AE864B" stroke-width="2.66656" stroke-linecap="round" stroke-linejoin="round"/>
<path d="M23.9989 2.6665H7.99957C6.52687 2.6665 5.33301 3.86036 5.33301 5.33306V26.6655C5.33301 28.1382 6.52687 29.3321 7.99957 29.3321H23.9989C25.4716 29.3321 26.6655 28.1382 26.6655 26.6655V5.33306C26.6655 3.86036 25.4716 2.6665 23.9989 2.6665Z" stroke="#AE864B" stroke-width="2.66656" stroke-linecap="round" stroke-linejoin="round"/>
</svg>
