<svg width="24" height="24" viewBox="0 0 24 24" fill="none" xmlns="http://www.w3.org/2000/svg">
<g clip-path="url(#clip0_1_1224)">
<path d="M14.3989 14.3991L9.59888 9.59912" stroke="currentColor" stroke-width="1.99978" stroke-linecap="round" stroke-linejoin="round"/>
<path d="M18.6551 21.4827C18.2801 21.8579 17.7715 22.0686 17.2411 22.0687C16.7107 22.0688 16.202 21.8582 15.8269 21.4832C15.4518 21.1083 15.241 20.5996 15.2409 20.0693C15.2408 19.5389 15.4514 19.0302 15.8264 18.6551L14.0596 20.4229C13.6844 20.798 13.1757 21.0087 12.6452 21.0087C12.1147 21.0087 11.606 20.798 11.2309 20.4229C10.8558 20.0478 10.645 19.539 10.645 19.0085C10.645 18.478 10.8558 17.9693 11.2309 17.5942L17.5942 11.2309C17.9693 10.8558 18.478 10.645 19.0085 10.645C19.539 10.645 20.0478 10.8558 20.4229 11.2309C20.798 11.606 21.0087 12.1147 21.0087 12.6452C21.0087 13.1757 20.798 13.6844 20.4229 14.0596L18.6551 15.8264C19.0302 15.4514 19.5389 15.2408 20.0693 15.2409C20.5996 15.241 21.1083 15.4518 21.4832 15.8269C21.8582 16.202 22.0688 16.7107 22.0687 17.2411C22.0686 17.7715 21.8579 18.2801 21.4827 18.6551L18.6551 21.4827Z" stroke="currentColor" stroke-width="1.99978" stroke-linecap="round" stroke-linejoin="round"/>
<path d="M21.4979 21.4981L20.0979 20.0981" stroke="currentColor" stroke-width="1.99978" stroke-linecap="round" stroke-linejoin="round"/>
<path d="M3.89976 3.89951L2.49976 2.49951" stroke="currentColor" stroke-width="1.99978" stroke-linecap="round" stroke-linejoin="round"/>
<path d="M6.40352 12.7666C6.02841 13.1417 5.51966 13.3524 4.98917 13.3524C4.45869 13.3524 3.94994 13.1417 3.57483 12.7666C3.19972 12.3915 2.98899 11.8827 2.98899 11.3522C2.98899 10.8218 3.19972 10.313 3.57483 9.93789L5.34264 8.17108C5.1569 8.35675 4.93642 8.50402 4.69377 8.60448C4.45112 8.70494 4.19106 8.75662 3.92844 8.75657C3.39805 8.75648 2.88942 8.54569 2.51444 8.17058C2.32877 7.98485 2.18151 7.76436 2.08105 7.52172C1.98059 7.27907 1.92891 7.01901 1.92896 6.75638C1.92905 6.226 2.13984 5.71737 2.51494 5.34239L5.34264 2.5147C5.71761 2.13959 6.22624 1.9288 6.75663 1.92871C7.01925 1.92866 7.27931 1.98035 7.52196 2.0808C7.76461 2.18126 7.98509 2.32853 8.17083 2.5142C8.35656 2.69987 8.50391 2.9203 8.60445 3.16292C8.705 3.40553 8.75677 3.66557 8.75682 3.92819C8.75686 4.19081 8.70518 4.45087 8.60472 4.69352C8.50427 4.93617 8.357 5.15666 8.17133 5.34239L9.93814 3.57458C10.3132 3.19948 10.822 2.98874 11.3525 2.98874C11.883 2.98874 12.3917 3.19948 12.7668 3.57458C13.1419 3.94969 13.3527 4.45845 13.3527 4.98893C13.3527 5.51941 13.1419 6.02817 12.7668 6.40328L6.40352 12.7666Z" stroke="currentColor" stroke-width="1.99978" stroke-linecap="round" stroke-linejoin="round"/>
</g>
<defs>
<clipPath id="clip0_1_1224">
<rect width="23.9974" height="23.9974" fill="currentColor"/>
</clipPath>
</defs>
</svg>
