<svg width="24" height="24" viewBox="0 0 24 24" fill="none" xmlns="http://www.w3.org/2000/svg">
<path d="M5.59995 5.6001C4.27715 5.6001 3.19995 6.6773 3.19995 8.0001V16.0001C3.19995 17.3229 4.27715 18.4001 5.59995 18.4001H18.4C19.7228 18.4001 20.8 17.3229 20.8 16.0001V8.0001C20.8 6.6773 19.7228 5.6001 18.4 5.6001H5.59995ZM5.59995 6.4001H18.4C19.2932 6.4001 20 7.1069 20 8.0001V16.0001C20 16.8933 19.2932 17.6001 18.4 17.6001H5.59995C5.38939 17.6017 5.18062 17.5614 4.98577 17.4816C4.79093 17.4017 4.61391 17.2839 4.46502 17.135C4.31613 16.9861 4.19833 16.8091 4.11849 16.6143C4.03865 16.4194 3.99835 16.2107 3.99995 16.0001V8.0001C3.99995 7.1069 4.70675 6.4001 5.59995 6.4001Z" fill="#475F5C"/>
<path d="M6.01161 8.00016C5.95715 7.99861 5.90294 8.00821 5.85231 8.02837C5.80169 8.04852 5.75571 8.0788 5.71721 8.11736C5.64222 8.19237 5.6001 8.2941 5.6001 8.40016C5.6001 8.50623 5.64222 8.60795 5.71721 8.68296L10.5172 13.483C11.3328 14.299 12.6672 14.299 13.4828 13.483L18.2828 8.68296C18.3578 8.60795 18.3999 8.50623 18.3999 8.40016C18.3999 8.2941 18.3578 8.19237 18.2828 8.11736C18.2078 8.04237 18.1061 8.00025 18 8.00025C17.8939 8.00025 17.7922 8.04237 17.7172 8.11736L12.9172 12.9174C12.7972 13.0385 12.6543 13.1347 12.4969 13.2003C12.3394 13.266 12.1706 13.2997 12 13.2997C11.8295 13.2997 11.6606 13.266 11.5032 13.2003C11.3457 13.1347 11.2029 13.0385 11.0828 12.9174L6.28281 8.11736C6.21068 8.04512 6.11366 8.00319 6.01161 8.00016Z" fill="#475F5C"/>
</svg>