<svg width="24" height="24" viewBox="0 0 24 24" fill="none" xmlns="http://www.w3.org/2000/svg">
<path d="M14.6983 6.29927C14.5151 6.48618 14.4125 6.73747 14.4125 6.99919C14.4125 7.26092 14.5151 7.51221 14.6983 7.69912L16.2982 9.29894C16.4851 9.48215 16.7364 9.58477 16.9981 9.58477C17.2598 9.58477 17.5111 9.48215 17.698 9.29894L21.4676 5.52935C21.9704 6.64042 22.1226 7.87833 21.904 9.07811C21.6854 10.2779 21.1064 11.3826 20.244 12.2449C19.3817 13.1072 18.277 13.6863 17.0772 13.9049C15.8774 14.1235 14.6395 13.9713 13.5285 13.4685L6.61922 20.3777C6.22144 20.7755 5.68193 20.999 5.11938 20.999C4.55683 20.999 4.01733 20.7755 3.61954 20.3777C3.22176 19.98 2.99829 19.4404 2.99829 18.8779C2.99829 18.3154 3.22176 17.7758 3.61954 17.3781L10.5288 10.4688C10.026 9.35775 9.87378 8.11984 10.0924 6.92006C10.311 5.72027 10.89 4.61561 11.7524 3.75327C12.6147 2.89093 13.7194 2.31187 14.9192 2.09327C16.119 1.87466 17.3569 2.0269 18.4679 2.52968L14.7083 6.28927L14.6983 6.29927Z" stroke="currentColor" stroke-width="1.99978" stroke-linecap="round" stroke-linejoin="round"/>
</svg>