<svg width="24" height="24" viewBox="0 0 24 24" fill="none" xmlns="http://www.w3.org/2000/svg">
<path d="M21.9978 16.9185V19.9182C21.9989 20.1966 21.9419 20.4723 21.8303 20.7274C21.7187 20.9826 21.5551 21.2116 21.3499 21.3999C21.1447 21.5881 20.9025 21.7314 20.6387 21.8207C20.3749 21.9099 20.0954 21.943 19.818 21.9179C16.7412 21.5836 13.7857 20.5322 11.1889 18.8483C8.77304 17.3131 6.72477 15.2648 5.1896 12.8489C3.49976 10.2404 2.44814 7.27052 2.11993 4.17986C2.09495 3.90336 2.12781 3.62468 2.21642 3.36157C2.30504 3.09847 2.44747 2.85669 2.63464 2.65165C2.82182 2.4466 3.04964 2.28278 3.30359 2.1706C3.55755 2.05843 3.83209 2.00036 4.10972 2.0001H7.10939C7.59464 1.99532 8.06508 2.16716 8.43301 2.48358C8.80094 2.8 9.04126 3.23941 9.10917 3.71991C9.23578 4.67987 9.47058 5.62243 9.8091 6.52961C9.94363 6.88749 9.97274 7.27644 9.893 7.65036C9.81325 8.02429 9.62798 8.36752 9.35915 8.63938L8.08928 9.90924C9.51269 12.4125 11.5854 14.4852 14.0886 15.9086L15.3585 14.6387C15.6304 14.3699 15.9736 14.1846 16.3475 14.1049C16.7214 14.0251 17.1104 14.0542 17.4683 14.1888C18.3754 14.5273 19.318 14.7621 20.278 14.8887C20.7637 14.9572 21.2073 15.2019 21.5244 15.5761C21.8415 15.9504 22.0099 16.4281 21.9978 16.9185Z" stroke="currentColor" stroke-width="1.99978" stroke-linecap="round" stroke-linejoin="round"/>
</svg>