<svg width="16" height="16" viewBox="0 0 16 16" fill="none" xmlns="http://www.w3.org/2000/svg">
<g clip-path="url(#clip0_18_943)">
<path d="M9.68829 14.454C9.71361 14.5171 9.75763 14.571 9.81444 14.6083C9.87125 14.6457 9.93813 14.6648 10.0061 14.663C10.0741 14.6613 10.1399 14.6388 10.1947 14.5986C10.2495 14.5584 10.2907 14.5023 10.3128 14.438L14.6451 1.77443C14.6664 1.71538 14.6705 1.65147 14.6568 1.59018C14.6432 1.5289 14.6123 1.47277 14.5679 1.42837C14.5235 1.38397 14.4674 1.35313 14.4061 1.33947C14.3448 1.3258 14.2809 1.32987 14.2219 1.3512L1.55828 5.68348C1.49396 5.70554 1.43792 5.74674 1.3977 5.80156C1.35747 5.85639 1.33498 5.9222 1.33324 5.99018C1.3315 6.05815 1.35059 6.12503 1.38796 6.18184C1.42533 6.23865 1.47918 6.28267 1.54228 6.30799L6.82766 8.42748C6.99474 8.49437 7.14655 8.59441 7.27393 8.72156C7.4013 8.84871 7.50161 9.00033 7.56881 9.16729L9.68829 14.454Z" stroke="white" stroke-width="1.33301" stroke-linecap="round" stroke-linejoin="round"/>
<path d="M14.5657 1.43115L7.27417 8.72204" stroke="white" stroke-width="1.33301" stroke-linecap="round" stroke-linejoin="round"/>
</g>
<defs>
<clipPath id="clip0_18_943">
<rect width="15.9961" height="15.9961" fill="white"/>
</clipPath>
</defs>
</svg>