<svg width="32" height="32" viewBox="0 0 32 32" fill="none" xmlns="http://www.w3.org/2000/svg">
<path d="M26.6656 17.3327C26.6656 23.9991 21.9991 27.3323 16.4527 29.2655C16.1622 29.364 15.8468 29.3592 15.5594 29.2522C9.99961 27.3323 5.33313 23.9991 5.33313 17.3327V7.99973C5.33313 7.64612 5.4736 7.307 5.72364 7.05696C5.97368 6.80692 6.3128 6.66645 6.66641 6.66645C9.33297 6.66645 12.6662 5.06652 14.9861 3.03993C15.2685 2.79861 15.6278 2.66602 15.9994 2.66602C16.3709 2.66602 16.7302 2.79861 17.0127 3.03993C19.3459 5.07985 22.6658 6.66645 25.3323 6.66645C25.6859 6.66645 26.025 6.80692 26.2751 7.05696C26.5251 7.307 26.6656 7.64612 26.6656 7.99973V17.3327Z" stroke="currentColor" stroke-width="2.66656" stroke-linecap="round" stroke-linejoin="round"/>
<path d="M11.9995 15.9993L14.6661 18.6659L19.9992 13.3328" stroke="currentColor" stroke-width="2.66656" stroke-linecap="round" stroke-linejoin="round"/>
</svg>
