<svg width="24" height="24" viewBox="0 0 24 24" fill="none" xmlns="http://www.w3.org/2000/svg">
<path d="M9.93583 15.4983C9.84657 15.1523 9.6662 14.8365 9.41351 14.5838C9.16082 14.3311 8.84502 14.1507 8.49899 14.0615L2.36466 12.4796C2.26 12.4499 2.16789 12.3869 2.1023 12.3001C2.03671 12.2133 2.00122 12.1075 2.00122 11.9987C2.00122 11.8899 2.03671 11.7841 2.1023 11.6973C2.16789 11.6105 2.26 11.5474 2.36466 11.5177L8.49899 9.9349C8.8449 9.84572 9.16061 9.6655 9.41329 9.413C9.66598 9.16049 9.84641 8.84491 9.93583 8.49906L11.5177 2.36472C11.5471 2.25965 11.61 2.16708 11.697 2.10114C11.7839 2.0352 11.89 1.99951 11.9991 1.99951C12.1082 1.99951 12.2143 2.0352 12.3013 2.10114C12.3882 2.16708 12.4512 2.25965 12.4806 2.36472L14.0614 8.49906C14.1507 8.84509 14.331 9.16088 14.5837 9.41357C14.8364 9.66627 15.1522 9.84663 15.4982 9.9359L21.6326 11.5167C21.7381 11.5458 21.8311 11.6087 21.8974 11.6958C21.9637 11.7828 21.9996 11.8892 21.9996 11.9987C21.9996 12.1081 21.9637 12.2145 21.8974 12.3016C21.8311 12.3886 21.7381 12.4515 21.6326 12.4806L15.4982 14.0615C15.1522 14.1507 14.8364 14.3311 14.5837 14.5838C14.331 14.8365 14.1507 15.1523 14.0614 15.4983L12.4796 21.6326C12.4502 21.7377 12.3872 21.8303 12.3003 21.8962C12.2133 21.9621 12.1072 21.9978 11.9981 21.9978C11.889 21.9978 11.7829 21.9621 11.696 21.8962C11.609 21.8303 11.5461 21.7377 11.5167 21.6326L9.93583 15.4983Z" stroke="currentColor" stroke-width="1.99978" stroke-linecap="round" stroke-linejoin="round"/>
<path d="M19.9978 2.99951V6.99951" stroke="currentColor" stroke-width="1.99978" stroke-linecap="round" stroke-linejoin="round"/>
<path d="M21.998 4.99951H17.998" stroke="currentColor" stroke-width="1.99978" stroke-linecap="round" stroke-linejoin="round"/>
<path d="M3.99951 16.998V18.998" stroke="currentColor" stroke-width="1.99978" stroke-linecap="round" stroke-linejoin="round"/>
<path d="M4.99976 17.998H2.99976" stroke="currentColor" stroke-width="1.99978" stroke-linecap="round" stroke-linejoin="round"/>
</svg>