<svg width="24" height="24" viewBox="0 0 24 24" fill="none" xmlns="http://www.w3.org/2000/svg">
<path d="M15.9982 20.9979V18.9981C15.9982 17.9374 15.5769 16.92 14.8268 16.17C14.0767 15.4199 13.0594 14.9985 11.9987 14.9985H5.99932C4.93857 14.9985 3.92127 15.4199 3.1712 16.17C2.42114 16.92 1.99976 17.9374 1.99976 18.9981V20.9979" stroke="currentColor" stroke-width="1.99978" stroke-linecap="round" stroke-linejoin="round"/>
<path d="M8.99951 10.9995C11.2087 10.9995 12.9995 9.20865 12.9995 6.99951C12.9995 4.79037 11.2087 2.99951 8.99951 2.99951C6.79037 2.99951 4.99951 4.79037 4.99951 6.99951C4.99951 9.20865 6.79037 10.9995 8.99951 10.9995Z" stroke="currentColor" stroke-width="1.99978" stroke-linecap="round" stroke-linejoin="round"/>
<path d="M21.998 20.9984V18.9984C21.9974 18.1121 21.7024 17.2512 21.1594 16.5507C20.6164 15.8503 19.8562 15.35 18.998 15.1284" stroke="currentColor" stroke-width="1.99978" stroke-linecap="round" stroke-linejoin="round"/>
<path d="M15.9983 3.12939C16.8587 3.3497 17.6213 3.8501 18.1659 4.5517C18.7105 5.25331 19.0061 6.11622 19.0061 7.00439C19.0061 7.89256 18.7105 8.75547 18.1659 9.45708C17.6213 10.1587 16.8587 10.6591 15.9983 10.8794" stroke="currentColor" stroke-width="1.99978" stroke-linecap="round" stroke-linejoin="round"/>
</svg>