<svg width="24" height="24" viewBox="0 0 24 24" fill="none" xmlns="http://www.w3.org/2000/svg">
<path d="M1.99976 5.9994C2.59969 6.49935 3.19963 6.99929 4.49948 6.99929C6.99921 6.99929 6.99921 4.99951 9.49894 4.99951C12.0987 4.99951 11.8987 6.99929 14.4984 6.99929C16.9981 6.99929 16.9981 4.99951 19.4979 4.99951C20.7977 4.99951 21.3977 5.49946 21.9976 5.9994" stroke="currentColor" stroke-width="1.99978" stroke-linecap="round" stroke-linejoin="round"/>
<path d="M1.99976 11.9989C2.59969 12.4989 3.19963 12.9988 4.49948 12.9988C6.99921 12.9988 6.99921 10.999 9.49894 10.999C12.0987 10.999 11.8987 12.9988 14.4984 12.9988C16.9981 12.9988 16.9981 10.999 19.4979 10.999C20.7977 10.999 21.3977 11.499 21.9976 11.9989" stroke="currentColor" stroke-width="1.99978" stroke-linecap="round" stroke-linejoin="round"/>
<path d="M1.99976 17.9979C2.59969 18.4979 3.19963 18.9978 4.49948 18.9978C6.99921 18.9978 6.99921 16.998 9.49894 16.998C12.0987 16.998 11.8987 18.9978 14.4984 18.9978C16.9981 18.9978 16.9981 16.998 19.4979 16.998C20.7977 16.998 21.3977 17.498 21.9976 17.9979" stroke="currentColor" stroke-width="1.99978" stroke-linecap="round" stroke-linejoin="round"/>
</svg>
